HIERARCHY
ROOT root
{
	OFFSET 0.000000 0.000000 0.000000
	CHANNELS 6 Xposition Yposition Zposition Zrotation Yrotation Xrotation
	JOINT lhip
	{
		OFFSET 0.058581 -0.082280 -0.017664
		CHANNELS 3 Zrotation Yrotation Xrotation
		JOINT lknee
		{
			OFFSET 0.043451 -0.386469 0.008037
			CHANNELS 3 Zrotation Yrotation Xrotation
			JOINT lankle
			{
				OFFSET -0.014790 -0.426874 -0.037428
				CHANNELS 3 Zrotation Yrotation Xrotation
				JOINT ltoe
				{
					OFFSET 0.041054 -0.060286 0.122042
					CHANNELS 3 Zrotation Yrotation Xrotation
					End Site
					{
						OFFSET 0.000000 0.000000 0.000000
					}
				}
			}
		}
	}
	JOINT rhip
	{
		OFFSET -0.060310 -0.090513 -0.013543
		CHANNELS 3 Zrotation Yrotation Xrotation
		JOINT rknee
		{
			OFFSET -0.043257 -0.383688 -0.004843
			CHANNELS 3 Zrotation Yrotation Xrotation
			JOINT rankle
			{
				OFFSET 0.019056 -0.420046 -0.034562
				CHANNELS 3 Zrotation Yrotation Xrotation
				JOINT rtoe
				{
					OFFSET -0.034840 -0.062106 0.130323
					CHANNELS 3 Zrotation Yrotation Xrotation
					End Site
					{
						OFFSET 0.000000 0.000000 0.000000
					}
				}
			}
		}
	}
	JOINT lowerback
	{
		OFFSET 0.004439 0.124404 -0.038385
		CHANNELS 3 Zrotation Yrotation Xrotation
		JOINT upperback
		{
			OFFSET 0.004488 0.137956 0.026820
			CHANNELS 3 Zrotation Yrotation Xrotation
			JOINT chest
			{
				OFFSET -0.002265 0.056032 0.002855
				CHANNELS 3 Zrotation Yrotation Xrotation
				JOINT lowerneck
				{
					OFFSET -0.013390 0.211636 -0.033468
					CHANNELS 3 Zrotation Yrotation Xrotation
					JOINT upperneck
					{
						OFFSET 0.010113 0.088937 0.050410
						CHANNELS 3 Zrotation Yrotation Xrotation
						End Site
						{
							OFFSET 0.000000 0.000000 0.000000
						}
					}
				}
				JOINT lclavicle
				{
					OFFSET 0.071702 0.114000 -0.018898
					CHANNELS 3 Zrotation Yrotation Xrotation
					JOINT lshoulder
					{
						OFFSET 0.122921 0.045205 -0.019046
						CHANNELS 3 Zrotation Yrotation Xrotation
						JOINT lelbow
						{
							OFFSET 0.255332 -0.015649 -0.022946
							CHANNELS 3 Zrotation Yrotation Xrotation
							JOINT lwrist
							{
								OFFSET 0.265709 0.012698 -0.007375
								CHANNELS 3 Zrotation Yrotation Xrotation
								End Site
								{
									OFFSET 0.000000 0.000000 0.000000
								}
							}
						}
					}
				}
				JOINT rclavicle
				{
					OFFSET -0.082954 0.112472 -0.023707
					CHANNELS 3 Zrotation Yrotation Xrotation
					JOINT rshoulder
					{
						OFFSET -0.113228 0.046853 -0.008472
						CHANNELS 3 Zrotation Yrotation Xrotation
						JOINT relbow
						{
							OFFSET -0.260127 -0.014369 -0.031269
							CHANNELS 3 Zrotation Yrotation Xrotation
							JOINT rwrist
							{
								OFFSET -0.269108 0.006794 -0.006027
								CHANNELS 3 Zrotation Yrotation Xrotation
								End Site
								{
									OFFSET 0.000000 0.000000 0.000000
								}
							}
						}
					}
				}
			}
		}
	}
}
MOTION
Frames: 14
Frame Time: 0.033333
1.693556 0.317071 0.999511 -90.774749 0.972412 89.427596 0.939129 -0.768865 7.759941 -6.580940 -0.006675 41.295653 -1.279262 18.127525 12.086193 0.000000 -0.000000 0.000000 0.230967 1.354316 -26.367028 4.446213 -9.251681 20.739968 -0.636923 -9.736557 10.977557 0.000000 -0.000000 0.000000 -0.666270 -6.462994 -6.450478 3.470176 -4.559594 12.867872 -2.133661 -2.879230 -0.643212 -6.757464 0.454682 19.294944 0.636912 4.413979 -6.333322 -16.738248 11.103848 2.314739 -51.863681 -4.446750 20.381277 -115.358200 -69.491679 149.265836 20.904391 -18.286383 11.590622 9.171866 -19.687166 -0.318571 46.622983 -25.417309 7.989418 83.125986 70.963309 106.447211 -20.784735 16.743795 -3.274779 
1.640794 0.324738 0.981110 -92.272677 1.239828 86.888786 1.923639 -0.536717 5.827484 -6.188807 2.944481 51.442415 0.819652 20.726009 7.658166 0.000000 -0.000000 0.000000 1.906523 2.891025 -24.488425 3.665229 -7.487940 30.107187 -3.719665 -10.685569 -0.207678 0.000000 -0.000000 0.000000 -0.851630 -4.961434 -4.078206 3.608947 -3.414103 13.814798 -2.139812 -2.162189 -1.054352 -5.396075 -0.604964 16.674327 -0.128934 3.580974 -4.825540 -19.169981 12.394914 1.296691 -50.548020 -3.410023 20.402111 -107.195698 -72.298786 141.649291 20.267508 -17.068899 14.295940 12.746287 -18.639497 -2.944012 45.806766 -23.146233 10.424521 75.631242 71.937464 99.898346 -21.982525 15.633658 -3.985178 
1.593378 0.329026 0.971129 -92.319737 1.230973 84.975594 2.339671 -2.126058 1.786986 -6.512053 4.583045 59.562954 1.912237 22.782996 2.463375 0.000000 -0.000000 0.000000 2.492859 3.448957 -20.634629 3.915476 -6.326056 34.031417 -4.764474 -12.307978 -7.638358 0.000000 -0.000000 0.000000 -1.180144 -3.358792 -2.201650 3.649400 -3.107621 14.508543 -2.131479 -1.741083 -1.259003 -4.970002 -2.484889 15.599512 0.038043 3.723925 -3.709558 -21.381432 13.606520 1.492205 -50.491993 -3.095905 19.641641 -87.770364 -75.382907 122.960451 19.615532 -15.698298 17.993135 15.809989 -17.573999 -4.088452 47.326286 -18.582184 11.228294 64.900215 71.880654 90.776755 -22.132309 15.422773 -1.842201 
1.540875 0.332280 0.970111 -92.312346 0.749239 84.328974 2.676108 -3.789707 -5.972828 -6.944496 5.862013 65.203728 2.571049 22.608851 -3.685842 0.000000 -0.000000 0.000000 2.807629 2.845680 -15.616876 3.733416 -5.640146 34.170470 -4.782094 -12.745659 -13.348609 0.000000 -0.000000 0.000000 -1.843287 -0.794190 -2.141692 3.601652 -2.982127 15.334782 -2.147029 -0.976348 -1.822343 -4.375176 -4.042784 16.449215 0.679730 3.171248 -2.564443 -22.652395 14.590437 2.362323 -51.515079 -1.507158 18.762035 -55.664187 -76.552288 91.702343 19.150427 -14.938283 20.492949 18.129532 -15.262738 -3.699141 51.402486 -13.937740 11.664020 56.368785 72.972151 83.936465 -22.410903 16.444091 -0.794952 
1.511816 0.334249 0.974179 -92.897010 0.699201 83.739950 3.355274 -3.927227 -9.872433 -7.159239 6.140690 64.889247 3.076867 22.247122 -6.499335 0.000000 -0.000000 0.000000 3.224085 2.417065 -11.908005 3.581990 -4.994856 32.810618 -4.068762 -12.338628 -14.638240 0.000000 -0.000000 0.000000 -1.733086 0.889774 -1.554966 3.516361 -2.347390 15.308568 -2.195627 -0.197539 -2.019952 -3.753685 -4.660551 17.100381 0.880105 2.010669 -2.339293 -23.035582 14.960658 2.761720 -51.960375 -0.321473 18.287174 -40.861171 -75.434797 77.641710 19.225049 -15.122035 20.689161 18.865711 -13.646116 -3.232603 54.142473 -11.715599 11.574657 54.768621 73.765186 82.819027 -23.104191 16.713674 -1.189009 
1.474107 0.336052 0.983028 -94.100042 0.372166 82.910243 3.979339 -3.801486 -13.650153 -6.989012 6.461386 59.968485 3.790412 22.041503 -7.980913 0.000000 -0.000000 0.000000 3.242352 1.684547 -6.545220 3.450346 -3.627433 29.913174 -2.510027 -11.316482 -14.900493 0.000000 -0.000000 0.000000 -1.825541 3.381195 -0.862629 3.414537 -1.283843 15.554644 -2.195073 0.961948 -2.440844 -2.398100 -5.489797 17.593867 0.882723 0.111589 -1.824751 -22.706747 15.401366 3.160579 -52.806541 1.406466 18.120812 -27.109854 -73.047595 65.226882 18.959922 -15.062123 20.286114 19.366647 -11.722289 -2.488642 57.354794 -8.690196 12.027970 53.558327 75.049570 82.289165 -23.831046 16.847845 -1.733189 
1.437940 0.336917 0.992688 -94.816489 -0.270019 82.981394 4.090337 -4.092966 -16.855357 -6.865725 6.123864 51.185389 4.427605 21.882966 -7.695761 0.000000 -0.000000 0.000000 2.628291 0.843640 -2.287151 3.233540 -2.384206 26.799256 -0.891854 -10.390271 -14.253553 0.000000 -0.000000 0.000000 -2.480057 5.684861 -1.054149 3.293889 -0.603666 15.673791 -2.125376 1.841570 -2.972818 -1.141916 -6.355095 17.566400 1.121262 -1.012209 -1.064074 -21.801506 15.843847 3.552752 -53.513803 3.537744 18.045586 -19.067942 -70.711926 57.816244 18.182752 -14.078036 19.002148 19.713267 -10.044543 -1.829028 59.501532 -5.545173 13.314487 53.151477 75.989084 82.410477 -24.036700 16.645696 -2.099155 
1.402597 0.337029 1.000553 -95.147897 -0.521780 83.291478 4.108220 -4.466781 -18.744986 -7.396351 3.345108 40.224490 4.804010 20.789998 -6.032496 0.000000 -0.000000 0.000000 2.121838 0.106059 1.397412 3.102666 -1.573412 24.074825 0.623611 -9.552193 -13.010383 0.000000 -0.000000 0.000000 -2.591153 7.239170 -1.415576 3.094615 -0.152901 15.788322 -2.206287 2.483364 -3.538509 -0.246587 -7.093736 17.075891 1.288319 -1.669084 -0.298582 -20.898265 16.023631 3.956479 -53.988490 6.036118 17.705148 -13.250198 -68.388440 52.518200 17.100267 -12.957499 17.822009 19.891303 -8.168458 -1.355936 60.760624 -2.480508 14.747899 52.916252 76.556656 82.851820 -23.490916 16.742419 -2.372088 
1.367247 0.336529 1.004942 -95.673706 -0.386299 83.697693 4.251301 -4.588382 -19.435040 -7.179420 -0.699154 28.781955 4.605861 18.543070 -2.440580 0.000000 -0.000000 0.000000 1.604467 -0.571887 4.582221 3.252831 -0.414733 22.111417 2.106004 -8.288387 -11.911790 0.000000 -0.000000 0.000000 -2.108875 8.331223 -2.134598 2.859817 0.266955 16.170196 -2.337705 3.045673 -4.038310 0.287576 -7.748383 16.448638 1.146604 -2.216230 0.537287 -20.066143 15.656414 4.279474 -54.462309 8.833353 17.294144 -8.258704 -65.535967 48.469013 16.012671 -12.010445 16.865503 19.674552 -6.282212 -0.834740 61.416095 0.358823 15.818275 53.483036 76.770919 84.108388 -22.687766 17.139768 -2.224883 
1.322290 0.335129 1.004496 -96.956219 -0.274878 84.557836 4.187814 -3.882400 -19.381554 -5.054282 -3.670433 15.440255 3.760096 15.588365 5.375598 0.000000 -0.000000 0.000000 0.576110 -1.048021 6.936494 3.537782 1.482542 21.909342 3.551513 -6.355526 -11.417743 0.000000 -0.000000 0.000000 -1.464019 9.228330 -3.450616 2.394372 0.855748 16.901610 -2.580104 3.767805 -4.986545 0.480690 -8.261460 15.836380 1.107313 -2.284390 1.117402 -19.695036 15.124559 4.547357 -54.146445 12.367999 16.750169 -4.875824 -62.445893 45.518932 14.523576 -10.063077 16.126752 19.571364 -4.239289 0.346466 61.536165 3.712307 16.931097 53.983081 76.895885 84.710593 -21.540492 17.387525 -1.241697 
1.285388 0.333500 0.999746 -98.378887 -0.079146 85.209197 3.969965 -2.478582 -18.672659 -3.500673 -4.937034 7.294117 3.470409 14.295650 9.291957 0.000000 -0.000000 0.000000 -0.084523 -1.087193 8.042056 3.550082 2.618832 23.131320 4.590402 -5.004101 -11.551886 0.000000 -0.000000 0.000000 -0.946706 9.496255 -4.453280 2.197784 1.410088 17.369745 -2.865753 4.394950 -5.665670 0.799920 -8.252922 15.411770 0.863650 -2.141480 1.592428 -19.499471 14.815863 4.732231 -53.718669 14.828184 16.500640 -3.729699 -60.326942 44.687243 13.901213 -9.423294 15.410062 19.613671 -2.850689 1.194929 61.200209 5.839316 17.654574 52.655516 76.608394 83.430025 -21.029141 17.609221 -0.621235 
1.246903 0.331422 0.992504 -99.812147 0.092848 85.666558 3.744217 -1.431402 -17.585870 -3.227222 -4.919212 3.242806 3.125097 13.396103 12.366380 0.000000 -0.000000 0.000000 -0.713138 -0.944710 9.055239 3.398222 3.604121 24.890073 5.323401 -4.040293 -11.641424 0.000000 -0.000000 0.000000 -0.649356 9.642922 -5.252175 2.178877 1.804402 17.480825 -2.990500 4.859839 -5.989205 0.958984 -8.174607 15.357664 0.728177 -1.873547 1.288168 -19.175591 14.529202 4.663351 -53.638767 16.826844 16.681435 -3.024876 -57.953495 44.619775 13.278471 -8.885664 14.294648 19.642768 -2.056607 1.571731 60.784912 7.183134 18.366909 49.427123 75.819659 80.239023 -20.289304 17.458225 0.022486 
1.206718 0.328366 0.984305 -100.696372 -0.019400 86.033273 2.991799 -1.565835 -16.530479 -3.765366 -4.274438 4.113087 4.804911 13.356129 11.946905 0.000000 -0.000000 0.000000 -1.566443 -0.746756 9.848739 3.255768 4.530068 27.440914 6.104774 -3.625736 -11.492449 0.000000 -0.000000 0.000000 -0.848545 9.672791 -6.096376 2.260488 1.787237 17.387450 -2.987362 5.008756 -6.077231 0.851380 -8.448053 15.434899 0.604595 -1.238165 1.074967 -18.863695 14.014150 4.703452 -54.027168 18.291185 16.938685 -2.049195 -55.478909 44.186638 13.210112 -8.691428 12.660917 19.721466 -1.684952 1.573408 60.620884 7.159577 18.912259 43.375953 74.686408 74.514263 -19.496637 17.221921 0.512189 
1.166717 0.324380 0.976561 -100.776314 -0.279486 86.655707 1.652408 -2.828922 -16.242462 -4.126773 -3.486728 7.663011 8.728824 15.455432 4.630878 0.000000 -0.000000 0.000000 -2.269130 -0.346155 9.432019 3.143444 4.610937 31.622821 7.408130 -4.072630 -10.183830 0.000000 -0.000000 0.000000 -1.542478 9.457570 -7.099448 2.596694 1.326220 16.881236 -2.948851 4.780621 -5.798874 0.527312 -9.029524 15.175174 0.667256 -0.171043 1.416852 -18.850785 13.095119 4.524127 -54.884461 19.266807 17.375514 -0.380423 -52.715706 43.435225 13.544539 -8.706495 11.908393 20.152394 -1.709251 0.939289 60.335407 5.832063 19.156612 35.479809 72.749795 67.722443 -18.460933 17.149820 1.363341 
